<svg xmlns="http://www.w3.org/2000/svg" width="1200" height="900" viewBox="0 0 1200 900" role="img" aria-labelledby="title desc">
  <title id="title">Modern startup workspace</title>
  <desc id="desc">A modern startup desk scene with laptop, notes, plant, and soft daylight.</desc>
  <defs>
    <linearGradient id="bg" x1="0%" y1="0%" x2="100%" y2="100%">
      <stop offset="0%" stop-color="#f7fbff"/>
      <stop offset="100%" stop-color="#d8e7ff"/>
    </linearGradient>
    <linearGradient id="screen" x1="0%" y1="0%" x2="100%" y2="100%">
      <stop offset="0%" stop-color="#2563eb"/>
      <stop offset="100%" stop-color="#0f172a"/>
    </linearGradient>
  </defs>
  <rect width="1200" height="900" fill="url(#bg)"/>
  <rect x="130" y="620" width="940" height="110" rx="36" fill="#c9a474"/>
  <rect x="380" y="290" width="440" height="290" rx="24" fill="#111827"/>
  <rect x="410" y="320" width="380" height="220" rx="14" fill="url(#screen)"/>
  <rect x="330" y="575" width="540" height="34" rx="17" fill="#334155"/>
  <rect x="195" y="405" width="140" height="178" rx="20" fill="#ffffff" stroke="#dbeafe" stroke-width="8"/>
  <rect x="222" y="440" width="86" height="12" rx="6" fill="#2563eb" opacity=".75"/>
  <rect x="222" y="470" width="62" height="12" rx="6" fill="#94a3b8"/>
  <rect x="222" y="500" width="94" height="12" rx="6" fill="#94a3b8"/>
  <circle cx="940" cy="480" r="60" fill="#16a34a"/>
  <rect x="908" y="535" width="66" height="72" rx="16" fill="#64748b"/>
  <path d="M925 477c-46-50-48-104 0-160 42 56 42 109 0 160Z" fill="#22c55e"/>
  <path d="M963 486c35-54 84-75 146-62-24 66-72 88-146 62Z" fill="#22c55e"/>
  <circle cx="720" cy="675" r="22" fill="#f97316"/>
  <rect x="755" y="657" width="130" height="36" rx="18" fill="#fff"/>
</svg>
